<?xml version="1.0" standalone="no"?>
<!DOCTYPE svg PUBLIC "-//W3C//DTD SVG 1.1//EN" "http://www.w3.org/Graphics/SVG/1.1/DTD/svg11.dtd" >
<svg xmlns="http://www.w3.org/2000/svg" xmlns:xlink="http://www.w3.org/1999/xlink" version="1.1">
<metadata>
Created by FontForge 20201107 at Mon Oct 28 05:49:46 2013
 By Jimmy Wärting
Copyright (c) 2013 by Style-7. All rights reserved. http://www.styleseven.com/
</metadata>
<defs>
<font id="DigitalCounter7" horiz-adv-x="560" >
  <font-face 
    font-family="Digital Counter 7"
    font-weight="400"
    font-stretch="normal"
    units-per-em="1000"
    panose-1="2 0 0 0 0 0 0 0 0 0"
    ascent="800"
    descent="-200"
    x-height="690"
    cap-height="780"
    bbox="0 -120 1030 900"
    underline-thickness="80"
    underline-position="-90"
    unicode-range="U+0020-2212"
  />
<missing-glyph 
 />
    <glyph glyph-name=".notdef" 
 />
    <glyph glyph-name=".null" 
 />
    <glyph glyph-name="nonmarkingreturn" 
 />
    <glyph glyph-name="space" unicode=" " 
 />
    <glyph glyph-name="space" unicode="&#xa0;" 
 />
    <glyph glyph-name="two" unicode="2" 
d="M90 80h290l60 -60l-20 -20h-370l-20 20zM0 50v310l20 20h20l40 -40v-250l-60 -60zM86 430h134l10 -40l-10 -40h-130l-40 40zM390 440v250l60 60l20 -20v-310l-20 -20h-20zM50 780h370l20 -20l-60 -60h-290l-60 60zM250 430h130l40 -40l-40 -40h-130l-10 40z" />
    <glyph glyph-name="three" unicode="3" 
d="M90 80h290l60 -60l-20 -20h-370l-20 20zM390 90v250l40 40h20l20 -22v-308l-20 -20zM86 430h134l10 -40l-10 -40h-130l-40 40zM390 440v250l60 60l20 -20v-310l-20 -20h-20zM50 780h370l20 -20l-60 -60h-290l-60 60zM250 430h130l40 -40l-40 -40h-130l-10 40z" />
    <glyph glyph-name="four" unicode="4" 
d="M390 90v250l40 40h20l20 -22v-308l-20 -20zM86 430h134l10 -40l-10 -40h-130l-40 40zM0 420v310l20 20l60 -60v-250l-40 -40h-20zM390 440v250l60 60l20 -20v-310l-20 -20h-20zM250 430h130l40 -40l-40 -40h-130l-10 40z" />
    <glyph glyph-name="six" unicode="6" 
d="M90 80h290l60 -60l-20 -20h-370l-20 20zM0 50v310l20 20h20l40 -40v-250l-60 -60zM390 90v250l40 40h20l20 -22v-308l-20 -20zM86 430h134l10 -40l-10 -40h-130l-40 40zM0 420v310l20 20l60 -60v-250l-40 -40h-20zM50 780h370l20 -20l-60 -60h-290l-60 60zM250 430h130
l40 -40l-40 -40h-130l-10 40z" />
    <glyph glyph-name="seven" unicode="7" 
d="M390 90v250l40 40h20l20 -22v-308l-20 -20zM0 420v310l20 20l60 -60v-250l-40 -40h-20zM390 440v250l60 60l20 -20v-310l-20 -20h-20zM50 780h370l20 -20l-60 -60h-290l-60 60z" />
    <glyph glyph-name="semicolon" unicode=";" horiz-adv-x="170" 
d="M0 610h80v-80h-80v80zM0 80h80v-80h-80v80zM0 -40h80v-80h-80v80z" />
    <glyph glyph-name="zero" unicode="0" 
d="M90 80h290l60 -60l-20 -20h-370l-20 20zM0 50v310l20 20h20l40 -40v-250l-60 -60zM390 90v250l40 40h20l20 -22v-308l-20 -20zM0 420v310l20 20l60 -60v-250l-40 -40h-20zM390 440v250l60 60l20 -20v-310l-20 -20h-20zM50 780h370l20 -20l-60 -60h-290l-60 60zM320 690
h60v-60l-80 -190h-60v60zM150 90h-60v60l80 190h60v-60z" />
    <glyph glyph-name="eight" unicode="8" 
d="M90 80h290l60 -60l-20 -20h-370l-20 20zM0 50v310l20 20h20l40 -40v-250l-60 -60zM390 90v250l40 40h20l20 -22v-308l-20 -20zM86 430h134l10 -40l-10 -40h-130l-40 40zM0 420v310l20 20l60 -60v-250l-40 -40h-20zM390 440v250l60 60l20 -20v-310l-20 -20h-20zM50 780
h370l20 -20l-60 -60h-290l-60 60zM250 430h130l40 -40l-40 -40h-130l-10 40z" />
    <glyph glyph-name="five" unicode="5" 
d="M90 80h290l60 -60l-20 -20h-370l-20 20zM390 90v250l40 40h20l20 -22v-308l-20 -20zM86 430h134l10 -40l-10 -40h-130l-40 40zM0 420v310l20 20l60 -60v-250l-40 -40h-20zM50 780h370l20 -20l-60 -60h-290l-60 60zM250 430h130l40 -40l-40 -40h-130l-10 40z" />
    <glyph glyph-name="nine" unicode="9" 
d="M90 80h290l60 -60l-20 -20h-370l-20 20zM390 90v250l40 40h20l20 -22v-308l-20 -20zM86 430h134l10 -40l-10 -40h-130l-40 40zM0 420v310l20 20l60 -60v-250l-40 -40h-20zM390 440v250l60 60l20 -20v-310l-20 -20h-20zM50 780h370l20 -20l-60 -60h-290l-60 60zM250 430
h130l40 -40l-40 -40h-130l-10 40z" />
    <glyph glyph-name="one" unicode="1" 
d="M390 90v250l40 40h20l20 -22v-308l-20 -20zM390 440v250l60 60l20 -20v-310l-20 -20h-20zM320 690h60v-60l-80 -190h-60v60z" />
    <glyph glyph-name="M" unicode="M" 
d="M0 50v310l20 20h20l40 -40v-250l-60 -60zM390 90v250l40 40h20l20 -22v-308l-20 -20zM0 420v310l20 20l60 -60v-250l-40 -40h-20zM390 440v250l60 60l20 -20v-310l-20 -20h-20zM50 780h370l20 -20l-60 -60h-290l-60 60zM195 690h80v-90l-25 -60h-30l-25 60v90z" />
    <glyph glyph-name="N" unicode="N" 
d="M0 50v310l20 20h20l40 -40v-250l-60 -60zM390 90v250l40 40h20l20 -22v-308l-20 -20zM0 420v310l20 20l60 -60v-250l-40 -40h-20zM390 440v250l60 60l20 -20v-310l-20 -20h-20zM230 500v-60h-60l-80 190v60h60zM240 280v60h60l80 -190v-60h-60z" />
    <glyph glyph-name="O" unicode="O" 
d="M90 80h290l60 -60l-20 -20h-370l-20 20zM0 50v310l20 20h20l40 -40v-250l-60 -60zM390 90v250l40 40h20l20 -22v-308l-20 -20zM0 420v310l20 20l60 -60v-250l-40 -40h-20zM390 440v250l60 60l20 -20v-310l-20 -20h-20zM50 780h370l20 -20l-60 -60h-290l-60 60z" />
    <glyph glyph-name="P" unicode="P" 
d="M0 50v310l20 20h20l40 -40v-250l-60 -60zM86 430h134l10 -40l-10 -40h-130l-40 40zM0 420v310l20 20l60 -60v-250l-40 -40h-20zM390 440v250l60 60l20 -20v-310l-20 -20h-20zM50 780h370l20 -20l-60 -60h-290l-60 60zM250 430h130l40 -40l-40 -40h-130l-10 40z" />
    <glyph glyph-name="Q" unicode="Q" 
d="M90 80h290l60 -60l-20 -20h-370l-20 20zM0 50v310l20 20h20l40 -40v-250l-60 -60zM390 90v250l40 40h20l20 -22v-308l-20 -20zM0 420v310l20 20l60 -60v-250l-40 -40h-20zM390 440v250l60 60l20 -20v-310l-20 -20h-20zM50 780h370l20 -20l-60 -60h-290l-60 60zM240 280
v60h60l80 -190v-60h-60z" />
    <glyph glyph-name="R" unicode="R" 
d="M0 50v310l20 20h20l40 -40v-250l-60 -60zM86 430h134l10 -40l-10 -40h-130l-40 40zM0 420v310l20 20l60 -60v-250l-40 -40h-20zM390 440v250l60 60l20 -20v-310l-20 -20h-20zM50 780h370l20 -20l-60 -60h-290l-60 60zM250 430h130l40 -40l-40 -40h-130l-10 40zM240 280
v60h60l80 -190v-60h-60z" />
    <glyph glyph-name="T" unicode="T" 
d="M50 780h370l20 -20l-60 -60h-290l-60 60zM195 690h80v-90l-25 -60h-30l-25 60v90zM195 180l25 60h30l25 -60v-90h-80v90z" />
    <glyph glyph-name="less" unicode="&#x3c;" 
d="M320 690h60v-60l-80 -190h-60v60zM240 280v60h60l80 -190v-60h-60z" />
    <glyph glyph-name="U" unicode="U" 
d="M90 80h290l60 -60l-20 -20h-370l-20 20zM0 50v310l20 20h20l40 -40v-250l-60 -60zM390 90v250l40 40h20l20 -22v-308l-20 -20zM0 420v310l20 20l60 -60v-250l-40 -40h-20zM390 440v250l60 60l20 -20v-310l-20 -20h-20z" />
    <glyph glyph-name="V" unicode="V" 
d="M390 90v250l40 40h20l20 -22v-308l-20 -20zM390 440v250l60 60l20 -20v-310l-20 -20h-20zM230 500v-60h-60l-80 190v60h60zM240 280v60h60l80 -190v-60h-60z" />
    <glyph glyph-name="W" unicode="W" 
d="M90 80h290l60 -60l-20 -20h-370l-20 20zM0 50v310l20 20h20l40 -40v-250l-60 -60zM390 90v250l40 40h20l20 -22v-308l-20 -20zM0 420v310l20 20l60 -60v-250l-40 -40h-20zM390 440v250l60 60l20 -20v-310l-20 -20h-20zM195 180l25 60h30l25 -60v-90h-80v90z" />
    <glyph glyph-name="Y" unicode="Y" 
d="M90 80h290l60 -60l-20 -20h-370l-20 20zM390 90v250l40 40h20l20 -22v-308l-20 -20zM86 430h134l10 -40l-10 -40h-130l-40 40zM0 420v310l20 20l60 -60v-250l-40 -40h-20zM390 440v250l60 60l20 -20v-310l-20 -20h-20zM250 430h130l40 -40l-40 -40h-130l-10 40z" />
    <glyph glyph-name="X" unicode="X" 
d="M230 500v-60h-60l-80 190v60h60zM320 690h60v-60l-80 -190h-60v60zM150 90h-60v60l80 190h60v-60zM240 280v60h60l80 -190v-60h-60z" />
    <glyph glyph-name="Z" unicode="Z" 
d="M90 80h290l60 -60l-20 -20h-370l-20 20zM50 780h370l20 -20l-60 -60h-290l-60 60zM320 690h60v-60l-80 -190h-60v60zM150 90h-60v60l80 190h60v-60z" />
    <glyph glyph-name="S" unicode="S" 
d="M90 80h290l60 -60l-20 -20h-370l-20 20zM390 90v250l40 40h20l20 -22v-308l-20 -20zM86 430h134l10 -40l-10 -40h-130l-40 40zM0 420v310l20 20l60 -60v-250l-40 -40h-20zM50 780h370l20 -20l-60 -60h-290l-60 60zM250 430h130l40 -40l-40 -40h-130l-10 40z" />
    <glyph glyph-name="L" unicode="L" 
d="M90 80h290l60 -60l-20 -20h-370l-20 20zM0 50v310l20 20h20l40 -40v-250l-60 -60zM0 420v310l20 20l60 -60v-250l-40 -40h-20z" />
    <glyph glyph-name="J" unicode="J" 
d="M90 80h290l60 -60l-20 -20h-370l-20 20zM0 50v310l20 20h20l40 -40v-250l-60 -60zM390 90v250l40 40h20l20 -22v-308l-20 -20zM390 440v250l60 60l20 -20v-310l-20 -20h-20zM50 780h370l20 -20l-60 -60h-290l-60 60z" />
    <glyph glyph-name="H" unicode="H" 
d="M0 50v310l20 20h20l40 -40v-250l-60 -60zM390 90v250l40 40h20l20 -22v-308l-20 -20zM86 430h134l10 -40l-10 -40h-130l-40 40zM0 420v310l20 20l60 -60v-250l-40 -40h-20zM390 440v250l60 60l20 -20v-310l-20 -20h-20zM250 430h130l40 -40l-40 -40h-130l-10 40z" />
    <glyph glyph-name="E" unicode="E" 
d="M90 80h290l60 -60l-20 -20h-370l-20 20zM0 50v310l20 20h20l40 -40v-250l-60 -60zM86 430h134l10 -40l-10 -40h-130l-40 40zM0 420v310l20 20l60 -60v-250l-40 -40h-20zM50 780h370l20 -20l-60 -60h-290l-60 60zM250 430h130l40 -40l-40 -40h-130l-10 40z" />
    <glyph glyph-name="F" unicode="F" 
d="M0 50v310l20 20h20l40 -40v-250l-60 -60zM86 430h134l10 -40l-10 -40h-130l-40 40zM0 420v310l20 20l60 -60v-250l-40 -40h-20zM50 780h370l20 -20l-60 -60h-290l-60 60zM250 430h130l40 -40l-40 -40h-130l-10 40z" />
    <glyph glyph-name="G" unicode="G" 
d="M90 80h290l60 -60l-20 -20h-370l-20 20zM0 50v310l20 20h20l40 -40v-250l-60 -60zM390 90v250l40 40h20l20 -22v-308l-20 -20zM0 420v310l20 20l60 -60v-250l-40 -40h-20zM50 780h370l20 -20l-60 -60h-290l-60 60zM250 430h130l40 -40l-40 -40h-130l-10 40z" />
    <glyph glyph-name="A" unicode="A" 
d="M0 50v310l20 20h20l40 -40v-250l-60 -60zM390 90v250l40 40h20l20 -22v-308l-20 -20zM86 430h134l10 -40l-10 -40h-130l-40 40zM0 420v310l20 20l60 -60v-250l-40 -40h-20zM390 440v250l60 60l20 -20v-310l-20 -20h-20zM50 780h370l20 -20l-60 -60h-290l-60 60zM250 430
h130l40 -40l-40 -40h-130l-10 40z" />
    <glyph glyph-name="C" unicode="C" 
d="M90 80h290l60 -60l-20 -20h-370l-20 20zM0 50v310l20 20h20l40 -40v-250l-60 -60zM0 420v310l20 20l60 -60v-250l-40 -40h-20zM50 780h370l20 -20l-60 -60h-290l-60 60z" />
    <glyph glyph-name="B" unicode="B" 
d="M90 80h290l60 -60l-20 -20h-370l-20 20zM0 50v310l20 20h20l40 -40v-250l-60 -60zM390 90v250l40 40h20l20 -22v-308l-20 -20zM86 430h134l10 -40l-10 -40h-130l-40 40zM0 420v310l20 20l60 -60v-250l-40 -40h-20zM250 430h130l40 -40l-40 -40h-130l-10 40z" />
    <glyph glyph-name="D" unicode="D" 
d="M90 80h290l60 -60l-20 -20h-370l-20 20zM0 50v310l20 20h20l40 -40v-250l-60 -60zM390 90v250l40 40h20l20 -22v-308l-20 -20zM86 430h134l10 -40l-10 -40h-130l-40 40zM390 440v250l60 60l20 -20v-310l-20 -20h-20zM250 430h130l40 -40l-40 -40h-130l-10 40z" />
    <glyph glyph-name="I" unicode="I" 
d="M90 80h290l60 -60l-20 -20h-370l-20 20zM50 780h370l20 -20l-60 -60h-290l-60 60zM195 690h80v-90l-25 -60h-30l-25 60v90zM195 180l25 60h30l25 -60v-90h-80v90z" />
    <glyph glyph-name="K" unicode="K" 
d="M0 50v310l20 20h20l40 -40v-250l-60 -60zM86 430h134l10 -40l-10 -40h-130l-40 40zM0 420v310l20 20l60 -60v-250l-40 -40h-20zM320 690h60v-60l-80 -190h-60v60zM240 280v60h60l80 -190v-60h-60z" />
    <glyph glyph-name="a" unicode="a" 
d="M0 50v310l20 20h20l40 -40v-250l-60 -60zM390 90v250l40 40h20l20 -22v-308l-20 -20zM86 430h134l10 -40l-10 -40h-130l-40 40zM0 420v310l20 20l60 -60v-250l-40 -40h-20zM390 440v250l60 60l20 -20v-310l-20 -20h-20zM50 780h370l20 -20l-60 -60h-290l-60 60zM250 430
h130l40 -40l-40 -40h-130l-10 40z" />
    <glyph glyph-name="b" unicode="b" 
d="M90 80h290l60 -60l-20 -20h-370l-20 20zM0 50v310l20 20h20l40 -40v-250l-60 -60zM390 90v250l40 40h20l20 -22v-308l-20 -20zM86 430h134l10 -40l-10 -40h-130l-40 40zM0 420v310l20 20l60 -60v-250l-40 -40h-20zM250 430h130l40 -40l-40 -40h-130l-10 40z" />
    <glyph glyph-name="c" unicode="c" 
d="M90 80h290l60 -60l-20 -20h-370l-20 20zM0 50v310l20 20h20l40 -40v-250l-60 -60zM0 420v310l20 20l60 -60v-250l-40 -40h-20zM50 780h370l20 -20l-60 -60h-290l-60 60z" />
    <glyph glyph-name="d" unicode="d" 
d="M90 80h290l60 -60l-20 -20h-370l-20 20zM0 50v310l20 20h20l40 -40v-250l-60 -60zM390 90v250l40 40h20l20 -22v-308l-20 -20zM86 430h134l10 -40l-10 -40h-130l-40 40zM390 440v250l60 60l20 -20v-310l-20 -20h-20zM250 430h130l40 -40l-40 -40h-130l-10 40z" />
    <glyph glyph-name="e" unicode="e" 
d="M90 80h290l60 -60l-20 -20h-370l-20 20zM0 50v310l20 20h20l40 -40v-250l-60 -60zM86 430h134l10 -40l-10 -40h-130l-40 40zM0 420v310l20 20l60 -60v-250l-40 -40h-20zM50 780h370l20 -20l-60 -60h-290l-60 60zM250 430h130l40 -40l-40 -40h-130l-10 40z" />
    <glyph glyph-name="f" unicode="f" 
d="M0 50v310l20 20h20l40 -40v-250l-60 -60zM86 430h134l10 -40l-10 -40h-130l-40 40zM0 420v310l20 20l60 -60v-250l-40 -40h-20zM50 780h370l20 -20l-60 -60h-290l-60 60zM250 430h130l40 -40l-40 -40h-130l-10 40z" />
    <glyph glyph-name="g" unicode="g" 
d="M90 80h290l60 -60l-20 -20h-370l-20 20zM0 50v310l20 20h20l40 -40v-250l-60 -60zM390 90v250l40 40h20l20 -22v-308l-20 -20zM0 420v310l20 20l60 -60v-250l-40 -40h-20zM50 780h370l20 -20l-60 -60h-290l-60 60zM250 430h130l40 -40l-40 -40h-130l-10 40z" />
    <glyph glyph-name="h" unicode="h" 
d="M0 50v310l20 20h20l40 -40v-250l-60 -60zM390 90v250l40 40h20l20 -22v-308l-20 -20zM86 430h134l10 -40l-10 -40h-130l-40 40zM0 420v310l20 20l60 -60v-250l-40 -40h-20zM390 440v250l60 60l20 -20v-310l-20 -20h-20zM250 430h130l40 -40l-40 -40h-130l-10 40z" />
    <glyph glyph-name="i" unicode="i" 
d="M90 80h290l60 -60l-20 -20h-370l-20 20zM50 780h370l20 -20l-60 -60h-290l-60 60zM195 690h80v-90l-25 -60h-30l-25 60v90zM195 180l25 60h30l25 -60v-90h-80v90z" />
    <glyph glyph-name="j" unicode="j" 
d="M90 80h290l60 -60l-20 -20h-370l-20 20zM0 50v310l20 20h20l40 -40v-250l-60 -60zM390 90v250l40 40h20l20 -22v-308l-20 -20zM390 440v250l60 60l20 -20v-310l-20 -20h-20zM50 780h370l20 -20l-60 -60h-290l-60 60z" />
    <glyph glyph-name="k" unicode="k" 
d="M0 50v310l20 20h20l40 -40v-250l-60 -60zM86 430h134l10 -40l-10 -40h-130l-40 40zM0 420v310l20 20l60 -60v-250l-40 -40h-20zM320 690h60v-60l-80 -190h-60v60zM240 280v60h60l80 -190v-60h-60z" />
    <glyph glyph-name="l" unicode="l" 
d="M90 80h290l60 -60l-20 -20h-370l-20 20zM0 50v310l20 20h20l40 -40v-250l-60 -60zM0 420v310l20 20l60 -60v-250l-40 -40h-20z" />
    <glyph glyph-name="m" unicode="m" 
d="M0 50v310l20 20h20l40 -40v-250l-60 -60zM390 90v250l40 40h20l20 -22v-308l-20 -20zM0 420v310l20 20l60 -60v-250l-40 -40h-20zM390 440v250l60 60l20 -20v-310l-20 -20h-20zM50 780h370l20 -20l-60 -60h-290l-60 60zM195 690h80v-90l-25 -60h-30l-25 60v90z" />
    <glyph glyph-name="n" unicode="n" 
d="M0 50v310l20 20h20l40 -40v-250l-60 -60zM390 90v250l40 40h20l20 -22v-308l-20 -20zM0 420v310l20 20l60 -60v-250l-40 -40h-20zM390 440v250l60 60l20 -20v-310l-20 -20h-20zM230 500v-60h-60l-80 190v60h60zM240 280v60h60l80 -190v-60h-60z" />
    <glyph glyph-name="o" unicode="o" 
d="M90 80h290l60 -60l-20 -20h-370l-20 20zM0 50v310l20 20h20l40 -40v-250l-60 -60zM390 90v250l40 40h20l20 -22v-308l-20 -20zM0 420v310l20 20l60 -60v-250l-40 -40h-20zM390 440v250l60 60l20 -20v-310l-20 -20h-20zM50 780h370l20 -20l-60 -60h-290l-60 60z" />
    <glyph glyph-name="p" unicode="p" 
d="M0 50v310l20 20h20l40 -40v-250l-60 -60zM86 430h134l10 -40l-10 -40h-130l-40 40zM0 420v310l20 20l60 -60v-250l-40 -40h-20zM390 440v250l60 60l20 -20v-310l-20 -20h-20zM50 780h370l20 -20l-60 -60h-290l-60 60zM250 430h130l40 -40l-40 -40h-130l-10 40z" />
    <glyph glyph-name="q" unicode="q" 
d="M90 80h290l60 -60l-20 -20h-370l-20 20zM0 50v310l20 20h20l40 -40v-250l-60 -60zM390 90v250l40 40h20l20 -22v-308l-20 -20zM0 420v310l20 20l60 -60v-250l-40 -40h-20zM390 440v250l60 60l20 -20v-310l-20 -20h-20zM50 780h370l20 -20l-60 -60h-290l-60 60zM240 280
v60h60l80 -190v-60h-60z" />
    <glyph glyph-name="r" unicode="r" 
d="M0 50v310l20 20h20l40 -40v-250l-60 -60zM86 430h134l10 -40l-10 -40h-130l-40 40zM0 420v310l20 20l60 -60v-250l-40 -40h-20zM390 440v250l60 60l20 -20v-310l-20 -20h-20zM50 780h370l20 -20l-60 -60h-290l-60 60zM250 430h130l40 -40l-40 -40h-130l-10 40zM240 280
v60h60l80 -190v-60h-60z" />
    <glyph glyph-name="s" unicode="s" 
d="M90 80h290l60 -60l-20 -20h-370l-20 20zM390 90v250l40 40h20l20 -22v-308l-20 -20zM86 430h134l10 -40l-10 -40h-130l-40 40zM0 420v310l20 20l60 -60v-250l-40 -40h-20zM50 780h370l20 -20l-60 -60h-290l-60 60zM250 430h130l40 -40l-40 -40h-130l-10 40z" />
    <glyph glyph-name="t" unicode="t" 
d="M50 780h370l20 -20l-60 -60h-290l-60 60zM195 690h80v-90l-25 -60h-30l-25 60v90zM195 180l25 60h30l25 -60v-90h-80v90z" />
    <glyph glyph-name="u" unicode="u" 
d="M90 80h290l60 -60l-20 -20h-370l-20 20zM0 50v310l20 20h20l40 -40v-250l-60 -60zM390 90v250l40 40h20l20 -22v-308l-20 -20zM0 420v310l20 20l60 -60v-250l-40 -40h-20zM390 440v250l60 60l20 -20v-310l-20 -20h-20z" />
    <glyph glyph-name="v" unicode="v" 
d="M390 90v250l40 40h20l20 -22v-308l-20 -20zM390 440v250l60 60l20 -20v-310l-20 -20h-20zM230 500v-60h-60l-80 190v60h60zM240 280v60h60l80 -190v-60h-60z" />
    <glyph glyph-name="w" unicode="w" 
d="M90 80h290l60 -60l-20 -20h-370l-20 20zM0 50v310l20 20h20l40 -40v-250l-60 -60zM390 90v250l40 40h20l20 -22v-308l-20 -20zM0 420v310l20 20l60 -60v-250l-40 -40h-20zM390 440v250l60 60l20 -20v-310l-20 -20h-20zM195 180l25 60h30l25 -60v-90h-80v90z" />
    <glyph glyph-name="x" unicode="x" 
d="M230 500v-60h-60l-80 190v60h60zM320 690h60v-60l-80 -190h-60v60zM150 90h-60v60l80 190h60v-60zM240 280v60h60l80 -190v-60h-60z" />
    <glyph glyph-name="y" unicode="y" 
d="M90 80h290l60 -60l-20 -20h-370l-20 20zM390 90v250l40 40h20l20 -22v-308l-20 -20zM86 430h134l10 -40l-10 -40h-130l-40 40zM0 420v310l20 20l60 -60v-250l-40 -40h-20zM390 440v250l60 60l20 -20v-310l-20 -20h-20zM250 430h130l40 -40l-40 -40h-130l-10 40z" />
    <glyph glyph-name="z" unicode="z" 
d="M90 80h290l60 -60l-20 -20h-370l-20 20zM50 780h370l20 -20l-60 -60h-290l-60 60zM320 690h60v-60l-80 -190h-60v60zM150 90h-60v60l80 190h60v-60z" />
    <glyph glyph-name="bar" unicode="|" 
d="M390 90v250l40 40h20l20 -22v-308l-20 -20zM390 440v250l60 60l20 -20v-310l-20 -20h-20z" />
    <glyph glyph-name="slash" unicode="/" 
d="M320 690h60v-60l-80 -190h-60v60zM150 90h-60v60l80 190h60v-60z" />
    <glyph glyph-name="underscore" unicode="_" 
d="M90 80h290l60 -60l-20 -20h-370l-20 20z" />
    <glyph glyph-name="backslash" unicode="\" 
d="M230 500v-60h-60l-80 190v60h60zM240 280v60h60l80 -190v-60h-60z" />
    <glyph glyph-name="bracketleft" unicode="[" 
d="M90 80h290l60 -60l-20 -20h-370l-20 20zM0 50v310l20 20h20l40 -40v-250l-60 -60zM0 420v310l20 20l60 -60v-250l-40 -40h-20zM50 780h370l20 -20l-60 -60h-290l-60 60z" />
    <glyph glyph-name="bracketright" unicode="]" 
d="M410 20l-20 -20h-370l-20 20l60 60h290zM420 30l-60 60v250l40 40h20l20 -20v-310zM420 400h-20l-40 40v250l60 60l20 -20v-310zM410 760l-60 -60h-290l-60 60l20 20h370z" />
    <glyph glyph-name="asciicircum" unicode="^" 
d="M0 420v310l20 20l60 -60v-250l-40 -40h-20zM390 440v250l60 60l20 -20v-310l-20 -20h-20zM50 780h370l20 -20l-60 -60h-290l-60 60z" />
    <glyph glyph-name="grave" unicode="`" 
d="M230 500v-60h-60l-80 190v60h60z" />
    <glyph glyph-name="hyphen" unicode="-" 
d="M86 430h134l10 -40l-10 -40h-130l-40 40zM250 430h130l40 -40l-40 -40h-130l-10 40z" />
    <glyph glyph-name="plus" unicode="+" 
d="M50 390l40 -40h130l10 40l-10 40h-134zM240 390l10 -40h130l40 40l-40 40h-130zM195 690h80v-90l-25 -60h-30l-25 60v90zM195 180l25 60h30l25 -60v-90h-80v90z" />
    <glyph glyph-name="asterisk" unicode="*" 
d="M50 390l40 -40h130l10 40l-10 40h-134zM240 390l10 -40h130l40 40l-40 40h-130zM230 500v-60h-60l-80 190v60h60zM320 690h60v-60l-80 -190h-60v60zM150 90h-60v60l80 190h60v-60zM240 280v60h60l80 -190v-60h-60z" />
    <glyph glyph-name="question" unicode="?" 
d="M0 50v310l20 20h20l40 -40v-250l-60 -60zM86 430h134l10 -40l-10 -40h-130l-40 40zM390 440v250l60 60l20 -20v-310l-20 -20h-20zM50 780h370l20 -20l-60 -60h-290l-60 60zM250 430h130l40 -40l-40 -40h-130l-10 40z" />
    <glyph glyph-name="at" unicode="@" 
d="M90 80h290l60 -60l-20 -20h-370l-20 20zM0 50v310l20 20h20l40 -40v-250l-60 -60zM0 420v310l20 20l60 -60v-250l-40 -40h-20zM390 440v250l60 60l20 -20v-310l-20 -20h-20zM50 780h370l20 -20l-60 -60h-290l-60 60zM250 430h130l40 -40l-40 -40h-130l-10 40z" />
    <glyph glyph-name="greater" unicode="&#x3e;" 
d="M230 500v-60h-60l-80 190v60h60zM150 90h-60v60l80 190h60v-60z" />
    <glyph glyph-name="equal" unicode="=" 
d="M90 80h290l60 -60l-20 -20h-370l-20 20zM86 430h134l10 -40l-10 -40h-130l-40 40zM250 430h130l40 -40l-40 -40h-130l-10 40z" />
    <glyph glyph-name="parenleft" unicode="(" 
d="M320 690h60v-60l-80 -190h-60v60zM240 280v60h60l80 -190v-60h-60z" />
    <glyph glyph-name="parenright" unicode=")" 
d="M230 500v-60h-60l-80 190v60h60zM150 90h-60v60l80 190h60v-60z" />
    <glyph glyph-name="quotesingle" unicode="'" 
d="M0 420v310l20 20l60 -60v-250l-40 -40h-20z" />
    <glyph glyph-name="braceleft" unicode="{" 
d="M90 80h290l60 -60l-20 -20h-370l-20 20zM0 50v310l20 20h20l40 -40v-250l-60 -60zM0 420v310l20 20l60 -60v-250l-40 -40h-20zM50 780h370l20 -20l-60 -60h-290l-60 60zM86 430h134l10 -40l-10 -40h-130l-40 40z" />
    <glyph glyph-name="braceright" unicode="}" 
d="M90 80h290l60 -60l-20 -20h-370l-20 20zM390 90v250l40 40h20l20 -22v-308l-20 -20zM390 440v250l60 60l20 -20v-310l-20 -20h-20zM50 780h370l20 -20l-60 -60h-290l-60 60zM250 430h130l40 -40l-40 -40h-130l-10 40z" />
    <glyph glyph-name="asciitilde" unicode="~" 
d="M230 500v-60h-60l-80 190v60h60zM320 690h60v-60l-80 -190h-60v60z" />
    <glyph glyph-name="period" unicode="." horiz-adv-x="170" 
d="M0 80h80v-80h-80v80z" />
    <glyph glyph-name="comma" unicode="," horiz-adv-x="170" 
d="M0 80h80v-80h-80v80zM0 -40h80v-80h-80v80z" />
    <glyph glyph-name="percent" unicode="%" 
d="M390 90v250l40 40h20l20 -22v-308l-20 -20zM0 420v310l20 20l60 -60v-250l-40 -40h-20zM320 690h60v-60l-80 -190h-60v60zM150 90h-60v60l80 190h60v-60z" />
    <glyph glyph-name="numbersign" unicode="#" 
d="M0 50v310l20 20h20l40 -40v-250l-60 -60zM390 90v250l40 40h20l20 -22v-308l-20 -20zM0 420v310l20 20l60 -60v-250l-40 -40h-20zM390 440v250l60 60l20 -20v-310l-20 -20h-20z" />
    <glyph glyph-name="quotedbl" unicode="&#x22;" 
d="M0 420v310l20 20l60 -60v-250l-40 -40h-20zM390 440v250l60 60l20 -20v-310l-20 -20h-20z" />
    <glyph glyph-name="dollar" unicode="$" 
d="M90 80h290l60 -60l-20 -20h-370l-20 20zM390 90v250l40 40h20l20 -22v-308l-20 -20zM86 430h134l10 -40l-10 -40h-130l-40 40zM0 420v310l20 20l60 -60v-250l-40 -40h-20zM50 780h370l20 -20l-60 -60h-290l-60 60zM250 430h130l40 -40l-40 -40h-130l-10 40zM195 690h80
v-90l-25 -60h-30l-25 60v90zM195 180l25 60h30l25 -60v-90h-80v90z" />
    <glyph glyph-name="ampersand" unicode="&#x26;" 
d="M90 80h290l60 -60l-20 -20h-370l-20 20zM50 780h370l20 -20l-60 -60h-290l-60 60zM240 280v60h60l80 -190v-60h-60zM320 690h60v-60l-80 -190h-60v60zM230 500v-60h-60l-80 190v60h60zM150 90h-60v60l80 190h60v-60z" />
    <glyph glyph-name="colon" unicode=":" horiz-adv-x="170" 
d="M0 260h80v-80h-80v80zM0 610h80v-80h-80v80z" />
    <glyph glyph-name="exclam" unicode="!" 
d="M0 50v310l20 20h20l40 -40v-250l-60 -60zM0 420v310l20 20l60 -60v-250l-40 -40h-20z" />
    <glyph glyph-name="Euro" unicode="&#x20ac;" 
d="M90 80h290l60 -60l-20 -20h-370l-20 20zM50 780h370l20 -20l-60 -60h-290l-60 60zM230 500v-60h-60l-80 190v60h60zM150 90h-60v60l80 190h60v-60z" />
    <glyph glyph-name="ydieresis" unicode="&#xff;" 
d="M90 80h290l60 -60l-20 -20h-370l-20 20zM0 50v310l20 20h20l40 -40v-250l-60 -60zM390 90v250l40 40h20l20 -22v-308l-20 -20zM86 430h134l10 -40l-10 -40h-130l-40 40zM0 420v310l20 20l60 -60v-250l-40 -40h-20zM390 440v250l60 60l20 -20v-310l-20 -20h-20zM50 780
h370l20 -20l-60 -60h-290l-60 60zM250 430h130l40 -40l-40 -40h-130l-10 40zM230 500v-60h-60l-80 190v60h60zM320 690h60v-60l-80 -190h-60v60zM150 90h-60v60l80 190h60v-60zM240 280v60h60l80 -190v-60h-60zM195 690h80v-90l-25 -60h-30l-25 60v90zM195 180l25 60h30
l25 -60v-90h-80v90z" />
    <glyph glyph-name="quotesinglbase" unicode="&#x201a;" 
d="M86 430h134l10 -40l-10 -40h-130l-40 40zM0 420v310l20 20l60 -60v-250l-40 -40h-20zM390 440v250l60 60l20 -20v-310l-20 -20h-20zM50 780h370l20 -20l-60 -60h-290l-60 60zM250 430h130l40 -40l-40 -40h-130l-10 40z" />
    <glyph glyph-name="currency" unicode="&#xa4;" 
d="M90 80h290l60 -60l-20 -20h-370l-20 20zM0 50v310l20 20h20l40 -40v-250l-60 -60zM390 90v250l40 40h20l20 -22v-308l-20 -20zM86 430h134l10 -40l-10 -40h-130l-40 40zM250 430h130l40 -40l-40 -40h-130l-10 40z" />
    <glyph glyph-name="exclamdown" unicode="&#xa1;" 
d="M0 50v310l20 20h20l40 -40v-250l-60 -60zM0 420v310l20 20l60 -60v-250l-40 -40h-20z" />
    <glyph glyph-name="cent" unicode="&#xa2;" 
d="M90 80h290l60 -60l-20 -20h-370l-20 20zM0 50v310l20 20h20l40 -40v-250l-60 -60zM0 420v310l20 20l60 -60v-250l-40 -40h-20zM50 780h370l20 -20l-60 -60h-290l-60 60zM195 690h80v-90l-25 -60h-30l-25 60v90zM195 180l25 60h30l25 -60v-90h-80v90z" />
    <glyph glyph-name="copyright" unicode="&#xa9;" 
d="M90 80h290l60 -60l-20 -20h-370l-20 20zM0 50v310l20 20h20l40 -40v-250l-60 -60zM86 430h134l10 -40l-10 -40h-130l-40 40zM250 430h130l40 -40l-40 -40h-130l-10 40z" />
    <glyph glyph-name="quoteleft" unicode="&#x2018;" 
d="M0 420v310l20 20l60 -60v-250l-40 -40h-20z" />
    <glyph glyph-name="quoteright" unicode="&#x2019;" 
d="M0 420v310l20 20l60 -60v-250l-40 -40h-20z" />
    <glyph glyph-name="quotedblleft" unicode="&#x201c;" 
d="M0 420v310l20 20l60 -60v-250l-40 -40h-20zM390 440v250l60 60l20 -20v-310l-20 -20h-20z" />
    <glyph glyph-name="quotedblright" unicode="&#x201d;" 
d="M0 420v310l20 20l60 -60v-250l-40 -40h-20zM390 440v250l60 60l20 -20v-310l-20 -20h-20z" />
    <glyph glyph-name="endash" unicode="&#x2013;" 
d="M86 430h134l10 -40l-10 -40h-130l-40 40zM250 430h130l40 -40l-40 -40h-130l-10 40z" />
    <glyph glyph-name="emdash" unicode="&#x2014;" 
d="M86 430h134l10 -40l-10 -40h-130l-40 40zM250 430h130l40 -40l-40 -40h-130l-10 40z" />
    <glyph glyph-name="quotedblbase" unicode="&#x201e;" 
d="M0 50v310l20 20h20l40 -40v-250l-60 -60zM390 90v250l40 40h20l20 -22v-308l-20 -20z" />
    <glyph glyph-name="brokenbar" unicode="&#xa6;" 
d="M0 50v310l20 20h20l40 -40v-250l-60 -60zM0 420v310l20 20l60 -60v-250l-40 -40h-20z" />
    <glyph glyph-name="guilsinglleft" unicode="&#x2039;" 
d="M240 390l10 -40h130l40 40l-40 40h-130zM320 690h60v-60l-80 -190h-60v60zM240 280v60h60l80 -190v-60h-60z" />
    <glyph glyph-name="guilsinglright" unicode="&#x203a;" 
d="M50 390l40 -40h130l10 40l-10 40h-134zM230 500v-60h-60l-80 190v60h60zM150 90h-60v60l80 190h60v-60z" />
    <glyph glyph-name="circumflex" unicode="&#x2c6;" 
d="M0 420v310l20 20l60 -60v-250l-40 -40h-20zM390 440v250l60 60l20 -20v-310l-20 -20h-20zM50 780h370l20 -20l-60 -60h-290l-60 60z" />
    <glyph glyph-name="paragraph" unicode="&#xb6;" 
d="M0 50v310l20 20h20l40 -40v-250l-60 -60zM390 90v250l40 40h20l20 -22v-308l-20 -20zM0 420v310l20 20l60 -60v-250l-40 -40h-20zM390 440v250l60 60l20 -20v-310l-20 -20h-20zM50 780h370l20 -20l-60 -60h-290l-60 60z" />
    <glyph glyph-name="mu" unicode="&#xb5;" 
d="M0 50v310l20 20h20l40 -40v-250l-60 -60zM0 420v310l20 20l60 -60v-250l-40 -40h-20zM390 440v250l60 60l20 -20v-310l-20 -20h-20zM50 780h370l20 -20l-60 -60h-290l-60 60zM195 690h80v-90l-25 -60h-30l-25 60v90z" />
    <glyph glyph-name="mu" unicode="&#x3bc;" 
d="M0 50v310l20 20h20l40 -40v-250l-60 -60zM0 420v310l20 20l60 -60v-250l-40 -40h-20zM390 440v250l60 60l20 -20v-310l-20 -20h-20zM50 780h370l20 -20l-60 -60h-290l-60 60zM195 690h80v-90l-25 -60h-30l-25 60v90z" />
    <glyph glyph-name="minus" unicode="&#x2212;" 
d="M86 430h134l10 -40l-10 -40h-130l-40 40zM250 430h130l40 -40l-40 -40h-130l-10 40z" />
    <glyph glyph-name="logicalnot" unicode="&#xac;" 
d="M0 420v310l20 20l60 -60v-250l-40 -40h-20zM50 780h370l20 -20l-60 -60h-290l-60 60z" />
    <glyph glyph-name="ordfeminine" unicode="&#xaa;" 
d="M90 80h290l60 -60l-20 -20h-370l-20 20zM0 50v310l20 20h20l40 -40v-250l-60 -60zM390 90v250l40 40h20l20 -22v-308l-20 -20zM86 430h134l10 -40l-10 -40h-130l-40 40zM390 440v250l60 60l20 -20v-310l-20 -20h-20zM50 780h370l20 -20l-60 -60h-290l-60 60zM250 430h130
l40 -40l-40 -40h-130l-10 40z" />
    <glyph glyph-name="degree" unicode="&#xb0;" 
d="M86 430h134l10 -40l-10 -40h-130l-40 40zM0 420v310l20 20l60 -60v-250l-40 -40h-20zM390 440v250l60 60l20 -20v-310l-20 -20h-20zM50 780h370l20 -20l-60 -60h-290l-60 60zM250 430h130l40 -40l-40 -40h-130l-10 40z" />
    <glyph glyph-name="ordmasculine" unicode="&#xba;" 
d="M86 430h134l10 -40l-10 -40h-130l-40 40zM0 420v310l20 20l60 -60v-250l-40 -40h-20zM390 440v250l60 60l20 -20v-310l-20 -20h-20zM50 780h370l20 -20l-60 -60h-290l-60 60zM250 430h130l40 -40l-40 -40h-130l-10 40z" />
    <glyph glyph-name="onesuperior" unicode="&#xb9;" 
d="M0 420v310l20 20l60 -60v-250l-40 -40h-20z" />
    <glyph glyph-name="questiondown" unicode="&#xbf;" 
d="M90 80h290l60 -60l-20 -20h-370l-20 20zM0 50v310l20 20h20l40 -40v-250l-60 -60zM86 430h134l10 -40l-10 -40h-130l-40 40zM390 440v250l60 60l20 -20v-310l-20 -20h-20zM250 430h130l40 -40l-40 -40h-130l-10 40z" />
    <glyph glyph-name="dieresis" unicode="&#xa8;" 
d="M90 80h290l60 -60l-20 -20h-370l-20 20zM0 50v310l20 20h20l40 -40v-250l-60 -60zM390 90v250l40 40h20l20 -22v-308l-20 -20zM86 430h134l10 -40l-10 -40h-130l-40 40zM0 420v310l20 20l60 -60v-250l-40 -40h-20zM390 440v250l60 60l20 -20v-310l-20 -20h-20zM50 780
h370l20 -20l-60 -60h-290l-60 60zM250 430h130l40 -40l-40 -40h-130l-10 40zM190 870h80v-80h-80v80zM190 -10h80v-80h-80v80z" />
    <glyph glyph-name="afii10017" unicode="&#x410;" 
d="M0 50v310l20 20h20l40 -40v-250l-60 -60zM390 90v250l40 40h20l20 -22v-308l-20 -20zM86 430h134l10 -40l-10 -40h-130l-40 40zM0 420v310l20 20l60 -60v-250l-40 -40h-20zM390 440v250l60 60l20 -20v-310l-20 -20h-20zM50 780h370l20 -20l-60 -60h-290l-60 60zM250 430
h130l40 -40l-40 -40h-130l-10 40z" />
    <glyph glyph-name="afii10018" unicode="&#x411;" 
d="M90 80h290l60 -60l-20 -20h-370l-20 20zM0 50v310l20 20h20l40 -40v-250l-60 -60zM390 90v250l40 40h20l20 -22v-308l-20 -20zM86 430h134l10 -40l-10 -40h-130l-40 40zM0 420v310l20 20l60 -60v-250l-40 -40h-20zM50 780h370l20 -20l-60 -60h-290l-60 60zM250 430h130
l40 -40l-40 -40h-130l-10 40z" />
    <glyph glyph-name="afii10020" unicode="&#x413;" 
d="M0 50v310l20 20h20l40 -40v-250l-60 -60zM0 420v310l20 20l60 -60v-250l-40 -40h-20zM50 780h370l20 -20l-60 -60h-290l-60 60z" />
    <glyph glyph-name="afii10022" unicode="&#x415;" 
d="M90 80h290l60 -60l-20 -20h-370l-20 20zM0 50v310l20 20h20l40 -40v-250l-60 -60zM86 430h134l10 -40l-10 -40h-130l-40 40zM0 420v310l20 20l60 -60v-250l-40 -40h-20zM50 780h370l20 -20l-60 -60h-290l-60 60zM250 430h130l40 -40l-40 -40h-130l-10 40z" />
    <glyph glyph-name="afii10025" unicode="&#x417;" 
d="M90 80h290l60 -60l-20 -20h-370l-20 20zM390 90v250l40 40h20l20 -22v-308l-20 -20zM86 430h134l10 -40l-10 -40h-130l-40 40zM390 440v250l60 60l20 -20v-310l-20 -20h-20zM50 780h370l20 -20l-60 -60h-290l-60 60zM250 430h130l40 -40l-40 -40h-130l-10 40z" />
    <glyph glyph-name="afii10026" unicode="&#x418;" 
d="M0 50v310l20 20h20l40 -40v-250l-60 -60zM390 90v250l40 40h20l20 -22v-308l-20 -20zM0 420v310l20 20l60 -60v-250l-40 -40h-20zM390 440v250l60 60l20 -20v-310l-20 -20h-20zM320 690h60v-60l-80 -190h-60v60zM150 90h-60v60l80 190h60v-60z" />
    <glyph glyph-name="afii10028" unicode="&#x41a;" 
d="M0 50v310l20 20h20l40 -40v-250l-60 -60zM86 430h134l10 -40l-10 -40h-130l-40 40zM0 420v310l20 20l60 -60v-250l-40 -40h-20zM320 690h60v-60l-80 -190h-60v60zM240 280v60h60l80 -190v-60h-60z" />
    <glyph glyph-name="afii10029" unicode="&#x41b;" 
d="M390 90v250l40 40h20l20 -22v-308l-20 -20zM390 440v250l60 60l20 -20v-310l-20 -20h-20zM320 690h60v-60l-80 -190h-60v60zM150 90h-60v60l80 190h60v-60z" />
    <glyph glyph-name="afii10030" unicode="&#x41c;" 
d="M0 50v310l20 20h20l40 -40v-250l-60 -60zM390 90v250l40 40h20l20 -22v-308l-20 -20zM0 420v310l20 20l60 -60v-250l-40 -40h-20zM390 440v250l60 60l20 -20v-310l-20 -20h-20zM50 780h370l20 -20l-60 -60h-290l-60 60zM195 690h80v-90l-25 -60h-30l-25 60v90z" />
    <glyph glyph-name="afii10031" unicode="&#x41d;" 
d="M0 50v310l20 20h20l40 -40v-250l-60 -60zM390 90v250l40 40h20l20 -22v-308l-20 -20zM86 430h134l10 -40l-10 -40h-130l-40 40zM0 420v310l20 20l60 -60v-250l-40 -40h-20zM390 440v250l60 60l20 -20v-310l-20 -20h-20zM250 430h130l40 -40l-40 -40h-130l-10 40z" />
    <glyph glyph-name="afii10032" unicode="&#x41e;" 
d="M90 80h290l60 -60l-20 -20h-370l-20 20zM0 50v310l20 20h20l40 -40v-250l-60 -60zM390 90v250l40 40h20l20 -22v-308l-20 -20zM0 420v310l20 20l60 -60v-250l-40 -40h-20zM390 440v250l60 60l20 -20v-310l-20 -20h-20zM50 780h370l20 -20l-60 -60h-290l-60 60z" />
    <glyph glyph-name="afii10033" unicode="&#x41f;" 
d="M0 50v310l20 20h20l40 -40v-250l-60 -60zM390 90v250l40 40h20l20 -22v-308l-20 -20zM0 420v310l20 20l60 -60v-250l-40 -40h-20zM390 440v250l60 60l20 -20v-310l-20 -20h-20zM50 780h370l20 -20l-60 -60h-290l-60 60z" />
    <glyph glyph-name="afii10034" unicode="&#x420;" 
d="M0 50v310l20 20h20l40 -40v-250l-60 -60zM86 430h134l10 -40l-10 -40h-130l-40 40zM0 420v310l20 20l60 -60v-250l-40 -40h-20zM390 440v250l60 60l20 -20v-310l-20 -20h-20zM50 780h370l20 -20l-60 -60h-290l-60 60zM250 430h130l40 -40l-40 -40h-130l-10 40z" />
    <glyph glyph-name="afii10035" unicode="&#x421;" 
d="M90 80h290l60 -60l-20 -20h-370l-20 20zM0 50v310l20 20h20l40 -40v-250l-60 -60zM0 420v310l20 20l60 -60v-250l-40 -40h-20zM50 780h370l20 -20l-60 -60h-290l-60 60z" />
    <glyph glyph-name="afii10036" unicode="&#x422;" 
d="M50 780h370l20 -20l-60 -60h-290l-60 60zM195 690h80v-90l-25 -60h-30l-25 60v90zM195 180l25 60h30l25 -60v-90h-80v90z" />
    <glyph glyph-name="afii10037" unicode="&#x423;" 
d="M90 80h290l60 -60l-20 -20h-370l-20 20zM390 90v250l40 40h20l20 -22v-308l-20 -20zM86 430h134l10 -40l-10 -40h-130l-40 40zM0 420v310l20 20l60 -60v-250l-40 -40h-20zM390 440v250l60 60l20 -20v-310l-20 -20h-20zM250 430h130l40 -40l-40 -40h-130l-10 40z" />
    <glyph glyph-name="afii10039" unicode="&#x425;" 
d="M230 500v-60h-60l-80 190v60h60zM320 690h60v-60l-80 -190h-60v60zM150 90h-60v60l80 190h60v-60zM240 280v60h60l80 -190v-60h-60z" />
    <glyph glyph-name="afii10041" unicode="&#x427;" 
d="M390 90v250l40 40h20l20 -22v-308l-20 -20zM86 430h134l10 -40l-10 -40h-130l-40 40zM0 420v310l20 20l60 -60v-250l-40 -40h-20zM390 440v250l60 60l20 -20v-310l-20 -20h-20zM250 430h130l40 -40l-40 -40h-130l-10 40z" />
    <glyph glyph-name="afii10042" unicode="&#x428;" 
d="M90 80h290l60 -60l-20 -20h-370l-20 20zM0 50v310l20 20h20l40 -40v-250l-60 -60zM390 90v250l40 40h20l20 -22v-308l-20 -20zM0 420v310l20 20l60 -60v-250l-40 -40h-20zM390 440v250l60 60l20 -20v-310l-20 -20h-20zM195 180l25 60h30l25 -60v-90h-80v90z" />
    <glyph glyph-name="afii10046" unicode="&#x42c;" 
d="M90 80h290l60 -60l-20 -20h-370l-20 20zM0 50v310l20 20h20l40 -40v-250l-60 -60zM390 90v250l40 40h20l20 -22v-308l-20 -20zM86 430h134l10 -40l-10 -40h-130l-40 40zM0 420v310l20 20l60 -60v-250l-40 -40h-20zM250 430h130l40 -40l-40 -40h-130l-10 40z" />
    <glyph glyph-name="afii10049" unicode="&#x42f;" 
d="M390 90v250l40 40h20l20 -22v-308l-20 -20zM86 430h134l10 -40l-10 -40h-130l-40 40zM0 420v310l20 20l60 -60v-250l-40 -40h-20zM390 440v250l60 60l20 -20v-310l-20 -20h-20zM50 780h370l20 -20l-60 -60h-290l-60 60zM250 430h130l40 -40l-40 -40h-130l-10 40zM150 90
h-60v60l80 190h60v-60z" />
    <glyph glyph-name="afii10019" unicode="&#x412;" 
d="M90 80h290l60 -60l-20 -20h-370l-20 20zM0 50v310l20 20h20l40 -40v-250l-60 -60zM390 90v250l40 40h20l20 -22v-308l-20 -20zM86 430h134l10 -40l-10 -40h-130l-40 40zM0 420v310l20 20l60 -60v-250l-40 -40h-20zM50 780h370l20 -20l-60 -60h-290l-60 60zM250 430h130
l40 -40l-40 -40h-130l-10 40zM320 690h60v-60l-80 -190h-60v60z" />
    <glyph glyph-name="afii10021" unicode="&#x414;" 
d="M90 80h290l60 -60l-20 -20h-370l-20 20zM0 50v310l20 20h20l40 -40v-250l-60 -60zM390 90v250l40 40h20l20 -22v-308l-20 -20zM86 430h134l10 -40l-10 -40h-130l-40 40zM390 440v250l60 60l20 -20v-310l-20 -20h-20zM50 780h370l20 -20l-60 -60h-290l-60 60zM250 430h130
l40 -40l-40 -40h-130l-10 40z" />
    <glyph glyph-name="afii10024" unicode="&#x416;" 
d="M230 500v-60h-60l-80 190v60h60zM320 690h60v-60l-80 -190h-60v60zM150 90h-60v60l80 190h60v-60zM240 280v60h60l80 -190v-60h-60zM195 690h80v-90l-25 -60h-30l-25 60v90zM195 180l25 60h30l25 -60v-90h-80v90z" />
    <glyph glyph-name="afii10038" unicode="&#x424;" 
d="M86 430h134l10 -40l-10 -40h-130l-40 40zM0 420v310l20 20l60 -60v-250l-40 -40h-20zM390 440v250l60 60l20 -20v-310l-20 -20h-20zM50 780h370l20 -20l-60 -60h-290l-60 60zM250 430h130l40 -40l-40 -40h-130l-10 40zM195 690h80v-90l-25 -60h-30l-25 60v90zM195 180
l25 60h30l25 -60v-90h-80v90z" />
    <glyph glyph-name="afii10040" unicode="&#x426;" 
d="M90 80h290l60 -60l-20 -20h-370l-20 20zM0 50v310l20 20h20l40 -40v-250l-60 -60zM390 90v250l40 40h20l20 -22v-308l-20 -20zM0 420v310l20 20l60 -60v-250l-40 -40h-20zM390 440v250l60 60l20 -20v-310l-20 -20h-20z" />
    <glyph glyph-name="afii10045" unicode="&#x42b;" horiz-adv-x="730" 
d="M90 80h290l60 -60l-20 -20h-370l-20 20zM0 50v310l20 20h20l40 -40v-250l-60 -60zM390 90v250l40 40h20l20 -22v-308l-20 -20zM86 430h134l10 -40l-10 -40h-130l-40 40zM0 420v310l20 20l60 -60v-250l-40 -40h-20zM250 430h130l40 -40l-40 -40h-130l-10 40zM560 50v310
l20 20h20l40 -40v-250l-60 -60zM560 420v310l20 20l60 -60v-250l-40 -40h-20z" />
    <glyph glyph-name="afii10047" unicode="&#x42d;" 
d="M90 80h290l60 -60l-20 -20h-370l-20 20zM390 90v250l40 40h20l20 -22v-308l-20 -20zM390 440v250l60 60l20 -20v-310l-20 -20h-20zM50 780h370l20 -20l-60 -60h-290l-60 60zM250 430h130l40 -40l-40 -40h-130l-10 40z" />
    <glyph glyph-name="afii10048" unicode="&#x42e;" horiz-adv-x="730" 
d="M0 90v250l40 40h20l20 -22v-308l-20 -20zM0 440v250l60 60l20 -20v-310l-20 -20h-20zM260 80h290l60 -60l-20 -20h-370l-20 20zM170 50v310l20 20h20l40 -40v-250l-60 -60zM560 90v250l40 40h20l20 -22v-308l-20 -20zM170 420v310l20 20l60 -60v-250l-40 -40h-20z
M560 440v250l60 60l20 -20v-310l-20 -20h-20zM220 780h370l20 -20l-60 -60h-290l-60 60z" />
    <glyph glyph-name="afii10027" unicode="&#x419;" 
d="M0 50v310l20 20h20l40 -40v-250l-60 -60zM390 90v250l40 40h20l20 -22v-308l-20 -20zM0 420v310l20 20l60 -60v-250l-40 -40h-20zM390 440v250l60 60l20 -20v-310l-20 -20h-20zM320 690h60v-60l-80 -190h-60v60zM150 90h-60v60l80 190h60v-60zM190 900h90v-80h-90v80z
" />
    <glyph glyph-name="afii10043" unicode="&#x429;" horiz-adv-x="730" 
d="M90 80h290l60 -60l-20 -20h-370l-20 20zM0 50v310l20 20h20l40 -40v-250l-60 -60zM390 90v250l40 40h20l20 -22v-308l-20 -20zM0 420v310l20 20l60 -60v-250l-40 -40h-20zM390 440v250l60 60l20 -20v-310l-20 -20h-20zM195 180l25 60h30l25 -60v-90h-80v90zM560 80h80
v-80h-80v80zM560 -20h80v-80h-80v80z" />
    <glyph glyph-name="afii10044" unicode="&#x42a;" 
d="M90 80h290l60 -60l-20 -20h-370l-20 20zM0 50v310l20 20h20l40 -40v-250l-60 -60zM390 90v250l40 40h20l20 -22v-308l-20 -20zM86 430h134l10 -40l-10 -40h-130l-40 40zM0 420v310l20 20l60 -60v-250l-40 -40h-20zM250 430h130l40 -40l-40 -40h-130l-10 40zM0 880h90v-80
h-90v80z" />
    <glyph glyph-name="afii10065" unicode="&#x430;" 
d="M0 50v310l20 20h20l40 -40v-250l-60 -60zM390 90v250l40 40h20l20 -22v-308l-20 -20zM86 430h134l10 -40l-10 -40h-130l-40 40zM0 420v310l20 20l60 -60v-250l-40 -40h-20zM390 440v250l60 60l20 -20v-310l-20 -20h-20zM50 780h370l20 -20l-60 -60h-290l-60 60zM250 430
h130l40 -40l-40 -40h-130l-10 40z" />
    <glyph glyph-name="afii10066" unicode="&#x431;" 
d="M90 80h290l60 -60l-20 -20h-370l-20 20zM0 50v310l20 20h20l40 -40v-250l-60 -60zM390 90v250l40 40h20l20 -22v-308l-20 -20zM86 430h134l10 -40l-10 -40h-130l-40 40zM0 420v310l20 20l60 -60v-250l-40 -40h-20zM50 780h370l20 -20l-60 -60h-290l-60 60zM250 430h130
l40 -40l-40 -40h-130l-10 40z" />
    <glyph glyph-name="afii10067" unicode="&#x432;" 
d="M90 80h290l60 -60l-20 -20h-370l-20 20zM0 50v310l20 20h20l40 -40v-250l-60 -60zM390 90v250l40 40h20l20 -22v-308l-20 -20zM86 430h134l10 -40l-10 -40h-130l-40 40zM0 420v310l20 20l60 -60v-250l-40 -40h-20zM50 780h370l20 -20l-60 -60h-290l-60 60zM250 430h130
l40 -40l-40 -40h-130l-10 40zM320 690h60v-60l-80 -190h-60v60z" />
    <glyph glyph-name="afii10068" unicode="&#x433;" 
d="M0 50v310l20 20h20l40 -40v-250l-60 -60zM0 420v310l20 20l60 -60v-250l-40 -40h-20zM50 780h370l20 -20l-60 -60h-290l-60 60z" />
    <glyph glyph-name="afii10069" unicode="&#x434;" 
d="M90 80h290l60 -60l-20 -20h-370l-20 20zM0 50v310l20 20h20l40 -40v-250l-60 -60zM390 90v250l40 40h20l20 -22v-308l-20 -20zM86 430h134l10 -40l-10 -40h-130l-40 40zM390 440v250l60 60l20 -20v-310l-20 -20h-20zM50 780h370l20 -20l-60 -60h-290l-60 60zM250 430h130
l40 -40l-40 -40h-130l-10 40z" />
    <glyph glyph-name="afii10070" unicode="&#x435;" 
d="M90 80h290l60 -60l-20 -20h-370l-20 20zM0 50v310l20 20h20l40 -40v-250l-60 -60zM86 430h134l10 -40l-10 -40h-130l-40 40zM0 420v310l20 20l60 -60v-250l-40 -40h-20zM50 780h370l20 -20l-60 -60h-290l-60 60zM250 430h130l40 -40l-40 -40h-130l-10 40z" />
    <glyph glyph-name="afii10072" unicode="&#x436;" 
d="M230 500v-60h-60l-80 190v60h60zM320 690h60v-60l-80 -190h-60v60zM150 90h-60v60l80 190h60v-60zM240 280v60h60l80 -190v-60h-60zM195 690h80v-90l-25 -60h-30l-25 60v90zM195 180l25 60h30l25 -60v-90h-80v90z" />
    <glyph glyph-name="afii10073" unicode="&#x437;" 
d="M90 80h290l60 -60l-20 -20h-370l-20 20zM390 90v250l40 40h20l20 -22v-308l-20 -20zM86 430h134l10 -40l-10 -40h-130l-40 40zM390 440v250l60 60l20 -20v-310l-20 -20h-20zM50 780h370l20 -20l-60 -60h-290l-60 60zM250 430h130l40 -40l-40 -40h-130l-10 40z" />
    <glyph glyph-name="afii10074" unicode="&#x438;" 
d="M0 50v310l20 20h20l40 -40v-250l-60 -60zM390 90v250l40 40h20l20 -22v-308l-20 -20zM0 420v310l20 20l60 -60v-250l-40 -40h-20zM390 440v250l60 60l20 -20v-310l-20 -20h-20zM320 690h60v-60l-80 -190h-60v60zM150 90h-60v60l80 190h60v-60z" />
    <glyph glyph-name="afii10075" unicode="&#x439;" 
d="M0 50v310l20 20h20l40 -40v-250l-60 -60zM390 90v250l40 40h20l20 -22v-308l-20 -20zM0 420v310l20 20l60 -60v-250l-40 -40h-20zM390 440v250l60 60l20 -20v-310l-20 -20h-20zM320 690h60v-60l-80 -190h-60v60zM150 90h-60v60l80 190h60v-60zM190 880h90v-80h-90v80z
" />
    <glyph glyph-name="afii10076" unicode="&#x43a;" 
d="M0 50v310l20 20h20l40 -40v-250l-60 -60zM86 430h134l10 -40l-10 -40h-130l-40 40zM0 420v310l20 20l60 -60v-250l-40 -40h-20zM320 690h60v-60l-80 -190h-60v60zM240 280v60h60l80 -190v-60h-60z" />
    <glyph glyph-name="afii10077" unicode="&#x43b;" 
d="M390 90v250l40 40h20l20 -22v-308l-20 -20zM390 440v250l60 60l20 -20v-310l-20 -20h-20zM320 690h60v-60l-80 -190h-60v60zM150 90h-60v60l80 190h60v-60z" />
    <glyph glyph-name="afii10078" unicode="&#x43c;" 
d="M0 50v310l20 20h20l40 -40v-250l-60 -60zM390 90v250l40 40h20l20 -22v-308l-20 -20zM0 420v310l20 20l60 -60v-250l-40 -40h-20zM390 440v250l60 60l20 -20v-310l-20 -20h-20zM50 780h370l20 -20l-60 -60h-290l-60 60zM195 690h80v-90l-25 -60h-30l-25 60v90z" />
    <glyph glyph-name="afii10079" unicode="&#x43d;" 
d="M0 50v310l20 20h20l40 -40v-250l-60 -60zM390 90v250l40 40h20l20 -22v-308l-20 -20zM86 430h134l10 -40l-10 -40h-130l-40 40zM0 420v310l20 20l60 -60v-250l-40 -40h-20zM390 440v250l60 60l20 -20v-310l-20 -20h-20zM250 430h130l40 -40l-40 -40h-130l-10 40z" />
    <glyph glyph-name="afii10080" unicode="&#x43e;" 
d="M90 80h290l60 -60l-20 -20h-370l-20 20zM0 50v310l20 20h20l40 -40v-250l-60 -60zM390 90v250l40 40h20l20 -22v-308l-20 -20zM0 420v310l20 20l60 -60v-250l-40 -40h-20zM390 440v250l60 60l20 -20v-310l-20 -20h-20zM50 780h370l20 -20l-60 -60h-290l-60 60z" />
    <glyph glyph-name="afii10081" unicode="&#x43f;" 
d="M0 50v310l20 20h20l40 -40v-250l-60 -60zM390 90v250l40 40h20l20 -22v-308l-20 -20zM0 420v310l20 20l60 -60v-250l-40 -40h-20zM390 440v250l60 60l20 -20v-310l-20 -20h-20zM50 780h370l20 -20l-60 -60h-290l-60 60z" />
    <glyph glyph-name="afii10082" unicode="&#x440;" 
d="M0 50v310l20 20h20l40 -40v-250l-60 -60zM86 430h134l10 -40l-10 -40h-130l-40 40zM0 420v310l20 20l60 -60v-250l-40 -40h-20zM390 440v250l60 60l20 -20v-310l-20 -20h-20zM50 780h370l20 -20l-60 -60h-290l-60 60zM250 430h130l40 -40l-40 -40h-130l-10 40z" />
    <glyph glyph-name="afii10083" unicode="&#x441;" 
d="M90 80h290l60 -60l-20 -20h-370l-20 20zM0 50v310l20 20h20l40 -40v-250l-60 -60zM0 420v310l20 20l60 -60v-250l-40 -40h-20zM50 780h370l20 -20l-60 -60h-290l-60 60z" />
    <glyph glyph-name="afii10084" unicode="&#x442;" 
d="M50 780h370l20 -20l-60 -60h-290l-60 60zM195 690h80v-90l-25 -60h-30l-25 60v90zM195 180l25 60h30l25 -60v-90h-80v90z" />
    <glyph glyph-name="afii10085" unicode="&#x443;" 
d="M90 80h290l60 -60l-20 -20h-370l-20 20zM390 90v250l40 40h20l20 -22v-308l-20 -20zM86 430h134l10 -40l-10 -40h-130l-40 40zM0 420v310l20 20l60 -60v-250l-40 -40h-20zM390 440v250l60 60l20 -20v-310l-20 -20h-20zM250 430h130l40 -40l-40 -40h-130l-10 40z" />
    <glyph glyph-name="afii10086" unicode="&#x444;" 
d="M86 430h134l10 -40l-10 -40h-130l-40 40zM0 420v310l20 20l60 -60v-250l-40 -40h-20zM390 440v250l60 60l20 -20v-310l-20 -20h-20zM50 780h370l20 -20l-60 -60h-290l-60 60zM250 430h130l40 -40l-40 -40h-130l-10 40zM195 690h80v-90l-25 -60h-30l-25 60v90zM195 180
l25 60h30l25 -60v-90h-80v90z" />
    <glyph glyph-name="afii10087" unicode="&#x445;" 
d="M230 500v-60h-60l-80 190v60h60zM320 690h60v-60l-80 -190h-60v60zM150 90h-60v60l80 190h60v-60zM240 280v60h60l80 -190v-60h-60z" />
    <glyph glyph-name="afii10088" unicode="&#x446;" horiz-adv-x="730" 
d="M90 80h290l60 -60l-20 -20h-370l-20 20zM0 50v310l20 20h20l40 -40v-250l-60 -60zM390 90v250l40 40h20l20 -22v-308l-20 -20zM0 420v310l20 20l60 -60v-250l-40 -40h-20zM390 440v250l60 60l20 -20v-310l-20 -20h-20zM560 80h80v-80h-80v80zM560 -20h80v-80h-80v80z" />
    <glyph glyph-name="afii10089" unicode="&#x447;" 
d="M390 90v250l40 40h20l20 -22v-308l-20 -20zM86 430h134l10 -40l-10 -40h-130l-40 40zM0 420v310l20 20l60 -60v-250l-40 -40h-20zM390 440v250l60 60l20 -20v-310l-20 -20h-20zM250 430h130l40 -40l-40 -40h-130l-10 40z" />
    <glyph glyph-name="afii10090" unicode="&#x448;" 
d="M90 80h290l60 -60l-20 -20h-370l-20 20zM0 50v310l20 20h20l40 -40v-250l-60 -60zM390 90v250l40 40h20l20 -22v-308l-20 -20zM0 420v310l20 20l60 -60v-250l-40 -40h-20zM390 440v250l60 60l20 -20v-310l-20 -20h-20zM195 180l25 60h30l25 -60v-90h-80v90z" />
    <glyph glyph-name="afii10091" unicode="&#x449;" horiz-adv-x="730" 
d="M90 80h290l60 -60l-20 -20h-370l-20 20zM0 50v310l20 20h20l40 -40v-250l-60 -60zM390 90v250l40 40h20l20 -22v-308l-20 -20zM0 420v310l20 20l60 -60v-250l-40 -40h-20zM390 440v250l60 60l20 -20v-310l-20 -20h-20zM195 180l25 60h30l25 -60v-90h-80v90zM560 80h80
v-80h-80v80zM560 -20h80v-80h-80v80z" />
    <glyph glyph-name="afii10092" unicode="&#x44a;" 
d="M90 80h290l60 -60l-20 -20h-370l-20 20zM0 50v310l20 20h20l40 -40v-250l-60 -60zM390 90v250l40 40h20l20 -22v-308l-20 -20zM86 430h134l10 -40l-10 -40h-130l-40 40zM0 420v310l20 20l60 -60v-250l-40 -40h-20zM250 430h130l40 -40l-40 -40h-130l-10 40zM0 880h90v-80
h-90v80z" />
    <glyph glyph-name="afii10093" unicode="&#x44b;" horiz-adv-x="730" 
d="M90 80h290l60 -60l-20 -20h-370l-20 20zM0 50v310l20 20h20l40 -40v-250l-60 -60zM390 90v250l40 40h20l20 -22v-308l-20 -20zM86 430h134l10 -40l-10 -40h-130l-40 40zM0 420v310l20 20l60 -60v-250l-40 -40h-20zM250 430h130l40 -40l-40 -40h-130l-10 40zM560 50v310
l20 20h20l40 -40v-250l-60 -60zM560 420v310l20 20l60 -60v-250l-40 -40h-20z" />
    <glyph glyph-name="afii10094" unicode="&#x44c;" 
d="M90 80h290l60 -60l-20 -20h-370l-20 20zM0 50v310l20 20h20l40 -40v-250l-60 -60zM390 90v250l40 40h20l20 -22v-308l-20 -20zM86 430h134l10 -40l-10 -40h-130l-40 40zM0 420v310l20 20l60 -60v-250l-40 -40h-20zM250 430h130l40 -40l-40 -40h-130l-10 40z" />
    <glyph glyph-name="afii10095" unicode="&#x44d;" 
d="M90 80h290l60 -60l-20 -20h-370l-20 20zM390 90v250l40 40h20l20 -22v-308l-20 -20zM390 440v250l60 60l20 -20v-310l-20 -20h-20zM50 780h370l20 -20l-60 -60h-290l-60 60zM250 430h130l40 -40l-40 -40h-130l-10 40z" />
    <glyph glyph-name="afii10096" unicode="&#x44e;" horiz-adv-x="730" 
d="M0 90v250l40 40h20l20 -22v-308l-20 -20zM0 440v250l60 60l20 -20v-310l-20 -20h-20zM260 80h290l60 -60l-20 -20h-370l-20 20zM170 50v310l20 20h20l40 -40v-250l-60 -60zM560 90v250l40 40h20l20 -22v-308l-20 -20zM170 420v310l20 20l60 -60v-250l-40 -40h-20z
M560 440v250l60 60l20 -20v-310l-20 -20h-20zM220 780h370l20 -20l-60 -60h-290l-60 60z" />
    <glyph glyph-name="afii10097" unicode="&#x44f;" 
d="M390 90v250l40 40h20l20 -22v-308l-20 -20zM86 430h134l10 -40l-10 -40h-130l-40 40zM0 420v310l20 20l60 -60v-250l-40 -40h-20zM390 440v250l60 60l20 -20v-310l-20 -20h-20zM50 780h370l20 -20l-60 -60h-290l-60 60zM250 430h130l40 -40l-40 -40h-130l-10 40zM150 90
h-60v60l80 190h60v-60z" />
    <glyph glyph-name="afii10054" unicode="&#x405;" 
d="M90 80h290l60 -60l-20 -20h-370l-20 20zM390 90v250l40 40h20l20 -22v-308l-20 -20zM86 430h134l10 -40l-10 -40h-130l-40 40zM0 420v310l20 20l60 -60v-250l-40 -40h-20zM50 780h370l20 -20l-60 -60h-290l-60 60zM250 430h130l40 -40l-40 -40h-130l-10 40z" />
    <glyph glyph-name="afii10102" unicode="&#x455;" 
d="M90 80h290l60 -60l-20 -20h-370l-20 20zM390 90v250l40 40h20l20 -22v-308l-20 -20zM86 430h134l10 -40l-10 -40h-130l-40 40zM0 420v310l20 20l60 -60v-250l-40 -40h-20zM50 780h370l20 -20l-60 -60h-290l-60 60zM250 430h130l40 -40l-40 -40h-130l-10 40z" />
    <glyph glyph-name="afii10056" unicode="&#x407;" 
d="M90 80h290l60 -60l-20 -20h-370l-20 20zM50 780h370l20 -20l-60 -60h-290l-60 60zM195 690h80v-90l-25 -60h-30l-25 60v90zM195 180l25 60h30l25 -60v-90h-80v90zM90 900h90v-80h-90v80zM290 900h90v-80h-90v80z" />
    <glyph glyph-name="afii10104" unicode="&#x457;" 
d="M90 80h290l60 -60l-20 -20h-370l-20 20zM50 780h370l20 -20l-60 -60h-290l-60 60zM195 690h80v-90l-25 -60h-30l-25 60v90zM195 180l25 60h30l25 -60v-90h-80v90zM90 900h90v-80h-90v80zM290 900h90v-80h-90v80z" />
    <glyph glyph-name="afii10055" unicode="&#x406;" 
d="M90 80h290l60 -60l-20 -20h-370l-20 20zM50 780h370l20 -20l-60 -60h-290l-60 60zM195 690h80v-90l-25 -60h-30l-25 60v90zM195 180l25 60h30l25 -60v-90h-80v90z" />
    <glyph glyph-name="afii10103" unicode="&#x456;" 
d="M90 80h290l60 -60l-20 -20h-370l-20 20zM50 780h370l20 -20l-60 -60h-290l-60 60zM195 690h80v-90l-25 -60h-30l-25 60v90zM195 180l25 60h30l25 -60v-90h-80v90z" />
    <glyph glyph-name="afii10062" unicode="&#x40e;" 
d="M90 80h290l60 -60l-20 -20h-370l-20 20zM390 90v250l40 40h20l20 -22v-308l-20 -20zM86 430h134l10 -40l-10 -40h-130l-40 40zM0 420v310l20 20l60 -60v-250l-40 -40h-20zM390 440v250l60 60l20 -20v-310l-20 -20h-20zM250 430h130l40 -40l-40 -40h-130l-10 40zM190 900
h90v-80h-90v80z" />
    <glyph glyph-name="afii10110" unicode="&#x45e;" 
d="M90 80h290l60 -60l-20 -20h-370l-20 20zM390 90v250l40 40h20l20 -22v-308l-20 -20zM86 430h134l10 -40l-10 -40h-130l-40 40zM0 420v310l20 20l60 -60v-250l-40 -40h-20zM390 440v250l60 60l20 -20v-310l-20 -20h-20zM250 430h130l40 -40l-40 -40h-130l-10 40zM190 900
h90v-80h-90v80z" />
    <glyph glyph-name="afii10057" unicode="&#x408;" 
d="M90 80h290l60 -60l-20 -20h-370l-20 20zM0 50v310l20 20h20l40 -40v-250l-60 -60zM390 90v250l40 40h20l20 -22v-308l-20 -20zM390 440v250l60 60l20 -20v-310l-20 -20h-20zM50 780h370l20 -20l-60 -60h-290l-60 60z" />
    <glyph glyph-name="afii10105" unicode="&#x458;" 
d="M90 80h290l60 -60l-20 -20h-370l-20 20zM0 50v310l20 20h20l40 -40v-250l-60 -60zM390 90v250l40 40h20l20 -22v-308l-20 -20zM390 440v250l60 60l20 -20v-310l-20 -20h-20zM50 780h370l20 -20l-60 -60h-290l-60 60z" />
    <glyph glyph-name="afii10193" unicode="&#x45f;" 
d="M90 80h290l60 -60l-20 -20h-370l-20 20zM0 50v310l20 20h20l40 -40v-250l-60 -60zM390 90v250l40 40h20l20 -22v-308l-20 -20zM0 420v310l20 20l60 -60v-250l-40 -40h-20zM390 440v250l60 60l20 -20v-310l-20 -20h-20zM200 -40h90v-80h-90v80z" />
    <glyph glyph-name="afii10145" unicode="&#x40f;" 
d="M90 80h290l60 -60l-20 -20h-370l-20 20zM0 50v310l20 20h20l40 -40v-250l-60 -60zM390 90v250l40 40h20l20 -22v-308l-20 -20zM0 420v310l20 20l60 -60v-250l-40 -40h-20zM390 440v250l60 60l20 -20v-310l-20 -20h-20zM200 -40h90v-80h-90v80z" />
    <glyph glyph-name="afii10052" unicode="&#x403;" 
d="M0 50v310l20 20h20l40 -40v-250l-60 -60zM0 420v310l20 20l60 -60v-250l-40 -40h-20zM50 780h370l20 -20l-60 -60h-290l-60 60zM190 900h90v-80h-90v80z" />
    <glyph glyph-name="afii10100" unicode="&#x453;" 
d="M0 50v310l20 20h20l40 -40v-250l-60 -60zM0 420v310l20 20l60 -60v-250l-40 -40h-20zM50 780h370l20 -20l-60 -60h-290l-60 60zM190 900h90v-80h-90v80z" />
    <glyph glyph-name="afii10050" unicode="&#x490;" 
d="M0 50v310l20 20h20l40 -40v-250l-60 -60zM0 420v310l20 20l60 -60v-250l-40 -40h-20zM50 780h370l20 -20l-60 -60h-290l-60 60zM380 900h90v-80h-90v80z" />
    <glyph glyph-name="afii10098" unicode="&#x491;" 
d="M0 50v310l20 20h20l40 -40v-250l-60 -60zM0 420v310l20 20l60 -60v-250l-40 -40h-20zM50 780h370l20 -20l-60 -60h-290l-60 60zM380 900h90v-80h-90v80z" />
    <glyph glyph-name="afii10061" unicode="&#x40c;" 
d="M0 50v310l20 20h20l40 -40v-250l-60 -60zM86 430h134l10 -40l-10 -40h-130l-40 40zM0 420v310l20 20l60 -60v-250l-40 -40h-20zM320 690h60v-60l-80 -190h-60v60zM240 280v60h60l80 -190v-60h-60zM190 900h90v-80h-90v80z" />
    <glyph glyph-name="afii10109" unicode="&#x45c;" 
d="M0 50v310l20 20h20l40 -40v-250l-60 -60zM86 430h134l10 -40l-10 -40h-130l-40 40zM0 420v310l20 20l60 -60v-250l-40 -40h-20zM320 690h60v-60l-80 -190h-60v60zM240 280v60h60l80 -190v-60h-60zM190 900h90v-80h-90v80z" />
    <glyph glyph-name="afii10023" unicode="&#x401;" 
d="M90 80h290l60 -60l-20 -20h-370l-20 20zM0 50v310l20 20h20l40 -40v-250l-60 -60zM86 430h134l10 -40l-10 -40h-130l-40 40zM0 420v310l20 20l60 -60v-250l-40 -40h-20zM50 780h370l20 -20l-60 -60h-290l-60 60zM250 430h130l40 -40l-40 -40h-130l-10 40zM90 900h90v-80
h-90v80zM290 900h90v-80h-90v80z" />
    <glyph glyph-name="afii10071" unicode="&#x451;" 
d="M90 80h290l60 -60l-20 -20h-370l-20 20zM0 50v310l20 20h20l40 -40v-250l-60 -60zM86 430h134l10 -40l-10 -40h-130l-40 40zM0 420v310l20 20l60 -60v-250l-40 -40h-20zM50 780h370l20 -20l-60 -60h-290l-60 60zM250 430h130l40 -40l-40 -40h-130l-10 40zM90 900h90v-80
h-90v80zM290 900h90v-80h-90v80z" />
    <glyph glyph-name="afii10053" unicode="&#x404;" 
d="M90 80h290l60 -60l-20 -20h-370l-20 20zM0 50v310l20 20h20l40 -40v-250l-60 -60zM86 430h134l10 -40l-10 -40h-130l-40 40zM0 420v310l20 20l60 -60v-250l-40 -40h-20zM50 780h370l20 -20l-60 -60h-290l-60 60z" />
    <glyph glyph-name="afii10101" unicode="&#x454;" 
d="M90 80h290l60 -60l-20 -20h-370l-20 20zM0 50v310l20 20h20l40 -40v-250l-60 -60zM86 430h134l10 -40l-10 -40h-130l-40 40zM0 420v310l20 20l60 -60v-250l-40 -40h-20zM50 780h370l20 -20l-60 -60h-290l-60 60z" />
    <glyph glyph-name="guillemotleft" unicode="&#xab;" 
d="M320 690h60v-60l-80 -190h-60v60zM240 280v60h60l80 -190v-60h-60zM80 690h60v-60l-80 -190h-60v60zM0 280v60h60l80 -190v-60h-60z" />
    <glyph glyph-name="guillemotright" unicode="&#xbb;" 
d="M140 500v-60h-60l-80 190v60h60zM60 90h-60v60l80 190h60v-60zM380 500v-60h-60l-80 190v60h60zM300 90h-60v60l80 190h60v-60z" />
    <glyph glyph-name="ellipsis" unicode="&#x2026;" horiz-adv-x="510" 
d="M0 80h80v-80h-80v80zM170 80h80v-80h-80v80zM340 80h80v-80h-80v80z" />
    <glyph glyph-name="perthousand" unicode="&#x2030;" horiz-adv-x="730" 
d="M390 90v250l40 40h20l20 -22v-308l-20 -20zM0 420v310l20 20l60 -60v-250l-40 -40h-20zM320 690h60v-60l-80 -190h-60v60zM150 90h-60v60l80 190h60v-60zM580 30l-20 20v308l20 22h20l40 -40v-250z" />
    <glyph glyph-name="afii10051" unicode="&#x402;" 
d="M0 50v310l20 20h20l40 -40v-250l-60 -60zM390 90v250l40 40h20l20 -22v-308l-20 -20zM86 430h134l10 -40l-10 -40h-130l-40 40zM0 420v310l20 20l60 -60v-250l-40 -40h-20zM250 430h130l40 -40l-40 -40h-130l-10 40zM0 900h90v-80h-90v80z" />
    <glyph glyph-name="afii10060" unicode="&#x40b;" 
d="M0 50v310l20 20h20l40 -40v-250l-60 -60zM390 90v250l40 40h20l20 -22v-308l-20 -20zM86 430h134l10 -40l-10 -40h-130l-40 40zM0 420v310l20 20l60 -60v-250l-40 -40h-20zM250 430h130l40 -40l-40 -40h-130l-10 40zM0 900h90v-80h-90v80z" />
    <glyph glyph-name="afii10108" unicode="&#x45b;" 
d="M0 50v310l20 20h20l40 -40v-250l-60 -60zM390 90v250l40 40h20l20 -22v-308l-20 -20zM86 430h134l10 -40l-10 -40h-130l-40 40zM0 420v310l20 20l60 -60v-250l-40 -40h-20zM250 430h130l40 -40l-40 -40h-130l-10 40zM190 880h90v-80h-90v80z" />
    <glyph glyph-name="afii10099" unicode="&#x452;" 
d="M0 50v310l20 20h20l40 -40v-250l-60 -60zM390 90v250l40 40h20l20 -22v-308l-20 -20zM86 430h134l10 -40l-10 -40h-130l-40 40zM0 420v310l20 20l60 -60v-250l-40 -40h-20zM250 430h130l40 -40l-40 -40h-130l-10 40zM190 880h90v-80h-90v80z" />
    <glyph glyph-name="registered" unicode="&#xae;" 
d="M90 80h290l60 -60l-20 -20h-370l-20 20zM0 50v310l20 20h20l40 -40v-250l-60 -60zM390 90v250l40 40h20l20 -22v-308l-20 -20zM0 420v310l20 20l60 -60v-250l-40 -40h-20zM390 440v250l60 60l20 -20v-310l-20 -20h-20zM50 780h370l20 -20l-60 -60h-290l-60 60zM160 520
h45v-45h-45v45zM160 460h45v-45h-45v45zM160 400h45v-45h-45v45zM220 520h45v-45h-45v45zM220 400h45v-45h-45v45zM280 460h45v-45h-45v45zM160 340h45v-45h-45v45zM160 280h45v-45h-45v45zM280 340h45v-45h-45v45zM280 280h45v-45h-45v45z" />
    <glyph glyph-name="afii61352" unicode="&#x2116;" 
d="M0 50v310l20 20h20l40 -40v-250l-60 -60zM390 90v250l40 40h20l20 -22v-308l-20 -20zM0 420v310l20 20l60 -60v-250l-40 -40h-20zM390 440v250l60 60l20 -20v-310l-20 -20h-20zM230 500v-60h-60l-80 190v60h60zM240 280v60h60l80 -190v-60h-60zM380 880h90v-80h-90v80z
" />
    <glyph glyph-name="periodcentered" unicode="&#xb7;" 
d="M200 430h80v-80h-80v80z" />
    <glyph glyph-name="uni00AD" unicode="&#xad;" 
d="M86 430h134l10 -40l-10 -40h-130l-40 40zM250 430h130l40 -40l-40 -40h-130l-10 40z" />
    <glyph glyph-name="plusminus" unicode="&#xb1;" 
d="M50 390l40 -40h130l10 40l-10 40h-134zM240 390l10 -40h130l40 40l-40 40h-130zM195 690h80v-90l-25 -60h-30l-25 60v90zM195 180l25 60h30l25 -60v-90h-80v90zM30 20l20 -20h370l20 20l-60 60h-290z" />
    <glyph glyph-name="dagger" unicode="&#x2020;" 
d="M50 390l40 -40h130l10 40l-10 40h-134zM240 390l10 -40h130l40 40l-40 40h-130zM195 690h80v-90l-25 -60h-30l-25 60v90zM195 180l25 60h30l25 -60v-90h-80v90z" />
    <glyph glyph-name="daggerdbl" unicode="&#x2021;" 
d="M50 390l40 -40h130l10 40l-10 40h-134zM240 390l10 -40h130l40 40l-40 40h-130zM195 690h80v-90l-25 -60h-30l-25 60v90zM195 180l25 60h30l25 -60v-90h-80v90zM30 20l20 -20h370l20 20l-60 60h-290z" />
    <glyph glyph-name="trademark" unicode="&#x2122;" horiz-adv-x="1120" 
d="M50 780h370l20 -20l-60 -60h-290l-60 60zM195 690h80v-90l-25 -60h-30l-25 60v90zM195 180l25 60h30l25 -60v-90h-80v90zM560 50v310l20 20h20l40 -40v-250l-60 -60zM950 90v250l40 40h20l20 -22v-308l-20 -20zM560 420v310l20 20l60 -60v-250l-40 -40h-20zM950 440v250
l60 60l20 -20v-310l-20 -20h-20zM610 780h370l20 -20l-60 -60h-290l-60 60zM755 690h80v-90l-25 -60h-30l-25 60v90z" />
    <glyph glyph-name="bullet" unicode="&#x2022;" 
d="M200 430h80v-80h-80v80z" />
    <glyph glyph-name="afii10058" unicode="&#x409;" horiz-adv-x="1120" 
d="M390 90v250l40 40h20l20 -22v-308l-20 -20zM390 440v250l60 60l20 -20v-310l-20 -20h-20zM320 690h60v-60l-80 -190h-60v60zM150 90h-60v60l80 190h60v-60zM650 80h290l60 -60l-20 -20h-370l-20 20zM560 50v310l20 20h20l40 -40v-250l-60 -60zM950 90v250l40 40h20
l20 -22v-308l-20 -20zM646 430h134l10 -40l-10 -40h-130l-40 40zM560 420v310l20 20l60 -60v-250l-40 -40h-20zM810 430h130l40 -40l-40 -40h-130l-10 40z" />
    <glyph glyph-name="afii10106" unicode="&#x459;" horiz-adv-x="1120" 
d="M390 90v250l40 40h20l20 -22v-308l-20 -20zM390 440v250l60 60l20 -20v-310l-20 -20h-20zM320 690h60v-60l-80 -190h-60v60zM150 90h-60v60l80 190h60v-60zM650 80h290l60 -60l-20 -20h-370l-20 20zM560 50v310l20 20h20l40 -40v-250l-60 -60zM950 90v250l40 40h20
l20 -22v-308l-20 -20zM646 430h134l10 -40l-10 -40h-130l-40 40zM560 420v310l20 20l60 -60v-250l-40 -40h-20zM810 430h130l40 -40l-40 -40h-130l-10 40z" />
    <glyph glyph-name="afii10059" unicode="&#x40a;" horiz-adv-x="1120" 
d="M650 80h290l60 -60l-20 -20h-370l-20 20zM560 50v310l20 20h20l40 -40v-250l-60 -60zM950 90v250l40 40h20l20 -22v-308l-20 -20zM646 430h134l10 -40l-10 -40h-130l-40 40zM560 420v310l20 20l60 -60v-250l-40 -40h-20zM810 430h130l40 -40l-40 -40h-130l-10 40zM0 50
v310l20 20h20l40 -40v-250l-60 -60zM390 90v250l40 40h20l20 -22v-308l-20 -20zM86 430h134l10 -40l-10 -40h-130l-40 40zM0 420v310l20 20l60 -60v-250l-40 -40h-20zM390 440v250l60 60l20 -20v-310l-20 -20h-20zM250 430h130l40 -40l-40 -40h-130l-10 40z" />
    <glyph glyph-name="afii10107" unicode="&#x45a;" horiz-adv-x="1120" 
d="M650 80h290l60 -60l-20 -20h-370l-20 20zM560 50v310l20 20h20l40 -40v-250l-60 -60zM950 90v250l40 40h20l20 -22v-308l-20 -20zM646 430h134l10 -40l-10 -40h-130l-40 40zM560 420v310l20 20l60 -60v-250l-40 -40h-20zM810 430h130l40 -40l-40 -40h-130l-10 40zM0 50
v310l20 20h20l40 -40v-250l-60 -60zM390 90v250l40 40h20l20 -22v-308l-20 -20zM86 430h134l10 -40l-10 -40h-130l-40 40zM0 420v310l20 20l60 -60v-250l-40 -40h-20zM390 440v250l60 60l20 -20v-310l-20 -20h-20zM250 430h130l40 -40l-40 -40h-130l-10 40z" />
    <glyph glyph-name="section" unicode="&#xa7;" 
d="M90 80h290l60 -60l-20 -20h-370l-20 20zM50 780h370l20 -20l-60 -60h-290l-60 60zM230 500v-60h-60l-80 190v60h60zM240 280v60h60l80 -190v-60h-60z" />
  </font>
</defs>
</svg>
